<svg width="36" height="35" viewBox="0 0 36 35" fill="none" xmlns="http://www.w3.org/2000/svg">
<path d="M18 0C8.33571 0 0.5 7.83571 0.5 17.5C0.5 27.1643 8.33571 35 18 35C27.6643 35 35.5 27.1643 35.5 17.5C35.5 7.83571 27.6643 0 18 0ZM6.65 8.75357H29.4607C29.6143 8.75357 29.7571 8.78214 29.8964 8.825L21.4071 16.0893L20.2821 17.0071L18.0571 18.8179L15.8357 17.0107L14.7071 16.0929L6.21071 8.825C6.35 8.78214 6.49643 8.75357 6.65 8.75357ZM5.18571 25.1893C5.13214 25.0321 5.09643 24.8679 5.09643 24.6929V10.3036C5.09643 10.1393 5.12857 9.98214 5.17857 9.83214L13.6357 17.075L5.18571 25.1893ZM29.4607 26.2464H6.65C6.50357 26.2464 6.36429 26.2179 6.23214 26.1821L14.7643 17.9929L18.0571 20.6714L21.3536 17.9893L29.8821 26.1821C29.7464 26.2214 29.6071 26.2464 29.4607 26.2464ZM30.925 25.1893L22.4786 17.0714L30.9321 9.83214C30.9821 9.98214 31.0143 10.1393 31.0143 10.3036V24.6929C31.0107 24.8679 30.9786 25.0321 30.925 25.1893Z" fill="#ffffff"/>
</svg>
