<svg width="34" height="34" viewBox="0 0 35 35" fill="none" xmlns="http://www.w3.org/2000/svg">
<g clip-path="url(#clip0_1_6)">
<path d="M17.5 0C7.83562 0 0 7.95832 0 17.774C0 26.1026 5.64667 33.0715 13.2592 35C13.1775 34.7601 13.125 34.4816 13.125 34.1365V31.0986C12.4148 31.0986 11.2248 31.0986 10.9258 31.0986C9.72854 31.0986 8.66396 30.5758 8.14771 29.6041C7.57458 28.5243 7.47542 26.8728 6.055 25.8627C5.63354 25.5264 5.95438 25.1428 6.44 25.1947C7.33688 25.4524 8.08063 26.0774 8.78063 27.0047C9.47771 27.9333 9.80583 28.1437 11.1081 28.1437C11.7396 28.1437 12.6846 28.1066 13.5742 27.9645C14.0525 26.7306 14.8794 25.5946 15.89 25.0584C10.0625 24.4496 7.28146 21.5051 7.28146 17.5074C7.28146 15.7863 8.00333 14.1215 9.22979 12.7188C8.82729 11.3265 8.32125 8.48709 9.38438 7.40584C12.0065 7.40584 13.5917 9.13288 13.9723 9.59945C15.279 9.14473 16.714 8.88701 18.2219 8.88701C19.7327 8.88701 21.1735 9.14473 22.4831 9.60241C22.8594 9.13881 24.446 7.40584 27.074 7.40584C28.1415 8.48857 27.6296 11.3398 27.2227 12.7292C28.4419 14.1289 29.1594 15.7893 29.1594 17.5074C29.1594 21.5021 26.3827 24.4452 20.564 25.0569C22.1652 25.9056 23.3333 28.2903 23.3333 30.087V34.1365C23.3333 34.2905 23.2998 34.4016 23.2823 34.5334C30.1015 32.1058 35 25.5294 35 17.774C35 7.95832 27.1644 0 17.5 0Z" fill="#333333"/>
</g>
<defs>
<clipPath id="clip0_1_6">
<rect width="35" height="35" fill="white"/>
</clipPath>
</defs>
</svg>
