<svg width="35" height="35" viewBox="0 0 35 35" fill="none" xmlns="http://www.w3.org/2000/svg">
<path d="M17.5 0C7.85065 0 0 7.84989 0 17.5C0 27.1501 7.85065 35 17.5 35C27.1493 35 35 27.1501 35 17.5C35 7.84989 27.1493 0 17.5 0ZM12.1739 25.1087H9.13043V13.6957H12.1739V25.1087ZM10.6522 11.413C9.81141 11.413 9.13043 10.7321 9.13043 9.8913C9.13043 9.05054 9.81141 8.36956 10.6522 8.36956C11.4929 8.36956 12.1739 9.05054 12.1739 9.8913C12.1739 10.7321 11.4929 11.413 10.6522 11.413ZM26.6304 25.1087H23.587V21.3043V19.4022C23.587 17.9375 22.3886 16.7391 20.9239 16.7391C19.4592 16.7391 18.2609 17.9375 18.2609 19.4022V25.1087H15.2174V13.6957H18.2609V15.0774C19.1496 14.2237 20.3548 13.6957 21.6848 13.6957C24.4163 13.6957 26.6304 15.9098 26.6304 18.6413V25.1087Z" fill="#333333"/>
</svg>
